<svg width="100%" viewBox="0 0 680 772" role="img" xmlns="http://www.w3.org/2000/svg">
<title>ADAM // COMMAND CENTER — Amber Mainframe theme</title>
<desc>A 1980s amber-phosphor mainframe dashboard on brown-black: giant counters for unread mail, markets and a project deadline, a spinning wireframe globe with a sweeping scan beam, two rotating tape reels, an ASCII boot banner, three station panels with live data, a life-admin grid, and a bottom ticker with marching crew sprites. Layered scanlines and a vignette overlay the whole CRT.</desc>
<defs>
<radialGradient id="vig" cx="50%" cy="50%" r="75%">
<stop offset="52%" stop-color="#000000" stop-opacity="0"/>
<stop offset="100%" stop-color="#000000" stop-opacity="0.85"/>
</radialGradient>
<radialGradient id="crtglow" cx="50%" cy="38%" r="70%">
<stop offset="0%" stop-color="#3a2a08" stop-opacity="0.55"/>
<stop offset="100%" stop-color="#3a2a08" stop-opacity="0"/>
</radialGradient>
<linearGradient id="termg" x1="0" y1="0" x2="1" y2="0">
<stop offset="0%" stop-color="#ffd24a" stop-opacity="0"/>
<stop offset="50%" stop-color="#ffe9a0" stop-opacity="0.55"/>
<stop offset="100%" stop-color="#ffd24a" stop-opacity="0"/>
</linearGradient>
<linearGradient id="sweepg" x1="0" y1="0" x2="0" y2="1">
<stop offset="0%" stop-color="#ffe9a0" stop-opacity="0"/>
<stop offset="50%" stop-color="#ffe9a0" stop-opacity="0.7"/>
<stop offset="100%" stop-color="#ffe9a0" stop-opacity="0"/>
</linearGradient>
<pattern id="scan" width="4" height="4" patternUnits="userSpaceOnUse">
<rect width="680" height="2" fill="#000000" opacity="0.22"/>
</pattern>
<clipPath id="globeclip"><circle cx="468" cy="300" r="66"/></clipPath>
<clipPath id="tickclip"><rect x="40" y="656" width="600" height="40" rx="6"/></clipPath>
<clipPath id="heroclip"><rect x="40" y="150" width="600" height="222" rx="6"/></clipPath>
<style>
.blink{animation:bl 1.2s steps(1) infinite}
@keyframes bl{0%,49%{opacity:1}50%,100%{opacity:0.16}}
.softpulse{animation:sp 2.4s ease-in-out infinite}
@keyframes sp{0%,100%{opacity:1}50%{opacity:0.4}}
.spin{transform-box:fill-box;transform-origin:center;animation:rot 8s linear infinite}
.spinr{transform-box:fill-box;transform-origin:center;animation:rotr 11s linear infinite}
.spinslow{transform-box:fill-box;transform-origin:center;animation:rot 18s linear infinite}
@keyframes rot{to{transform:rotate(360deg)}}
@keyframes rotr{to{transform:rotate(-360deg)}}
.scandrift{animation:sd 0.9s linear infinite}
@keyframes sd{from{transform:translateY(0)}to{transform:translateY(4px)}}
.term{animation:tm 4s ease-in-out infinite alternate}
@keyframes tm{from{transform:translateX(-66px)}to{transform:translateX(66px)}}
.heroscan{animation:hs 3.2s linear infinite}
@keyframes hs{from{transform:translateY(-30px)}to{transform:translateY(252px)}}
.crew{animation:walk 9s linear infinite}
@keyframes walk{from{transform:translateX(-30px)}to{transform:translateX(700px)}}
.legs{transform-box:fill-box;transform-origin:center;animation:step 0.4s steps(1) infinite}
@keyframes step{50%{transform:scaleX(-1)}}
.flick{animation:fk 0.16s steps(1) infinite}
@keyframes fk{50%{opacity:0.72}}
.barpulse{animation:bp 2s ease-in-out infinite}
@keyframes bp{0%,100%{opacity:1}50%{opacity:0.6}}
</style>
</defs>

<rect x="0" y="0" width="680" height="772" fill="#0f0a03"/>
<rect x="6" y="6" width="668" height="760" rx="16" fill="#1a1c14"/>
<rect x="9" y="9" width="662" height="754" rx="14" fill="#3a3d2e"/>
<rect x="13" y="13" width="654" height="746" rx="12" fill="#2b2e22"/>
<rect x="22" y="22" width="636" height="728" rx="9" fill="#140d04"/>
<rect x="26" y="26" width="628" height="720" rx="8" fill="#0f0a03"/>
<rect x="26" y="26" width="628" height="720" rx="8" fill="url(#crtglow)"/>

<circle cx="40" cy="40" r="7" fill="#1a1c14"/><circle cx="40" cy="40" r="4" fill="#4a4d3c"/>
<circle cx="640" cy="40" r="7" fill="#1a1c14"/><circle cx="640" cy="40" r="4" fill="#4a4d3c"/>
<circle cx="40" cy="732" r="7" fill="#1a1c14"/><circle cx="40" cy="732" r="4" fill="#4a4d3c"/>
<circle cx="640" cy="732" r="7" fill="#1a1c14"/><circle cx="640" cy="732" r="4" fill="#4a4d3c"/>

<text x="44" y="62" font-family="ui-monospace,Menlo,Consolas,monospace" font-size="20" font-weight="700" fill="#7a5410">ADAM</text>
<text x="44" y="62" font-family="ui-monospace,Menlo,Consolas,monospace" font-size="20" font-weight="700" fill="#b9831f" opacity="0.85">ADAM</text>
<text x="108" y="62" font-family="ui-monospace,Menlo,Consolas,monospace" font-size="20" font-weight="700" fill="#ffd24a">// COMMAND CENTER</text>
<text x="46" y="80" font-family="ui-monospace,Menlo,Consolas,monospace" font-size="11" fill="#b9831f">RENTON · WA</text>

<g font-family="ui-monospace,Menlo,Consolas,monospace">
<text x="636" y="50" text-anchor="end" font-size="22" fill="#7a5410">06:04:12</text>
<text x="636" y="50" text-anchor="end" font-size="22" fill="#ffd24a"><tspan class="flick">06:04:12</tspan></text>
<text x="636" y="66" text-anchor="end" font-size="11" fill="#b9831f">2026·06·20 SAT</text>
<text x="636" y="80" text-anchor="end" font-size="11" fill="#6b4a12">BKK 20:04 · LDN 14:04</text>
</g>
<circle cx="300" cy="56" r="7" fill="#ffd24a" opacity="0.25" class="softpulse"/>
<circle cx="300" cy="56" r="3.4" fill="#7dffb0" class="softpulse"/>
<text x="312" y="60" font-family="ui-monospace,Menlo,Consolas,monospace" font-size="11" fill="#ffd24a">SYSTEM ONLINE</text>

<line x1="40" y1="90" x2="640" y2="90" stroke="#6b4a12" stroke-width="1"/>

<rect x="40" y="98" width="600" height="20" fill="#140d04"/>
<text x="46" y="112" font-family="ui-monospace,Menlo,Consolas,monospace" font-size="11" fill="#b9831f">▸ BOOT OK · CORE 8/8 · MEM 640K · DISK 100% · NET LINK ESTABLISHED ▮<tspan class="blink">▮</tspan></text>

<g font-family="ui-monospace,Menlo,Consolas,monospace">
<text x="40" y="142" font-size="12" fill="#ffd24a">HERO TELEMETRY</text>
<text x="640" y="142" text-anchor="end" font-size="11" fill="#6b4a12">AMBER MAINFRAME · CRT-01</text>
</g>
<rect x="40" y="150" width="600" height="222" rx="6" fill="#140d04" opacity="0.5"/>
<rect x="40" y="150" width="600" height="222" rx="6" fill="none" stroke="#6b4a12" stroke-width="1"/>

<g clip-path="url(#heroclip)" opacity="0.18">
<line x1="40" y1="195" x2="640" y2="195" stroke="#6b4a12" stroke-width="0.5"/>
<line x1="40" y1="240" x2="640" y2="240" stroke="#6b4a12" stroke-width="0.5"/>
<line x1="40" y1="285" x2="640" y2="285" stroke="#6b4a12" stroke-width="0.5"/>
<line x1="40" y1="330" x2="640" y2="330" stroke="#6b4a12" stroke-width="0.5"/>
<line x1="160" y1="150" x2="160" y2="372" stroke="#6b4a12" stroke-width="0.5"/>
<line x1="340" y1="150" x2="340" y2="372" stroke="#6b4a12" stroke-width="0.5"/>
<line x1="520" y1="150" x2="520" y2="372" stroke="#6b4a12" stroke-width="0.5"/>
<g class="heroscan"><rect x="40" y="150" width="600" height="22" fill="url(#sweepg)" opacity="0.7"/></g>
</g>

<g class="spin">
<circle cx="118" cy="218" r="38" fill="#140d04" stroke="#7a5410" stroke-width="3"/>
<circle cx="118" cy="218" r="38" fill="none" stroke="#b9831f" stroke-width="1.4"/>
<circle cx="118" cy="218" r="32" fill="none" stroke="#ffd24a" stroke-width="0.6" opacity="0.35"/>
<circle cx="118" cy="218" r="12" fill="#1a1c14" stroke="#ffd24a" stroke-width="2"/>
<circle cx="118" cy="218" r="3" fill="#ffd24a"/>
<line x1="118" y1="206" x2="118" y2="180" stroke="#b9831f" stroke-width="3"/>
<line x1="118" y1="230" x2="118" y2="256" stroke="#b9831f" stroke-width="3"/>
<line x1="106" y1="218" x2="80" y2="218" stroke="#b9831f" stroke-width="3"/>
<line x1="130" y1="218" x2="156" y2="218" stroke="#b9831f" stroke-width="3"/>
<circle cx="118" cy="190" r="2.4" fill="#ffd24a"/>
<circle cx="118" cy="246" r="2.4" fill="#ffd24a"/>
<circle cx="90" cy="218" r="2.4" fill="#ffd24a"/>
<circle cx="146" cy="218" r="2.4" fill="#ffd24a"/>
</g>
<text x="118" y="270" text-anchor="middle" font-family="ui-monospace,Menlo,Consolas,monospace" font-size="11" fill="#6b4a12">REEL A · FWD</text>

<g class="spinr">
<circle cx="562" cy="218" r="38" fill="#140d04" stroke="#7a5410" stroke-width="3"/>
<circle cx="562" cy="218" r="38" fill="none" stroke="#b9831f" stroke-width="1.4"/>
<circle cx="562" cy="218" r="32" fill="none" stroke="#ffd24a" stroke-width="0.6" opacity="0.35"/>
<circle cx="562" cy="218" r="12" fill="#1a1c14" stroke="#ffd24a" stroke-width="2"/>
<circle cx="562" cy="218" r="3" fill="#ffd24a"/>
<line x1="562" y1="206" x2="562" y2="180" stroke="#b9831f" stroke-width="3"/>
<line x1="562" y1="230" x2="562" y2="256" stroke="#b9831f" stroke-width="3"/>
<line x1="550" y1="218" x2="524" y2="218" stroke="#b9831f" stroke-width="3"/>
<line x1="574" y1="218" x2="600" y2="218" stroke="#b9831f" stroke-width="3"/>
<circle cx="562" cy="190" r="2.4" fill="#ffd24a"/>
<circle cx="562" cy="246" r="2.4" fill="#ffd24a"/>
<circle cx="534" cy="218" r="2.4" fill="#ffd24a"/>
<circle cx="590" cy="218" r="2.4" fill="#ffd24a"/>
</g>
<text x="562" y="270" text-anchor="middle" font-family="ui-monospace,Menlo,Consolas,monospace" font-size="11" fill="#6b4a12">REEL B · REV</text>

<g font-family="ui-monospace,Menlo,Consolas,monospace">
<rect x="178" y="172" width="118" height="92" rx="5" fill="#140d04" stroke="#6b4a12" stroke-width="1"/>
<text x="237" y="188" text-anchor="middle" font-size="11" fill="#b9831f">UNREAD MAIL</text>
<text x="237" y="236" text-anchor="middle" font-size="40" fill="#6b4a12" opacity="0.22">888</text>
<text x="237" y="236" text-anchor="middle" font-size="40" font-weight="700" fill="#7a5410">201</text>
<text x="237" y="236" text-anchor="middle" font-size="40" font-weight="700" fill="#ffd24a" class="flick">201</text>
<text x="237" y="255" text-anchor="middle" font-size="11" fill="#ff6b5a">3 FLAGGED</text>

<rect x="304" y="172" width="72" height="92" rx="5" fill="#140d04" stroke="#6b4a12" stroke-width="1"/>
<text x="340" y="188" text-anchor="middle" font-size="11" fill="#b9831f">MARKETS</text>
<text x="340" y="236" text-anchor="middle" font-size="40" fill="#6b4a12" opacity="0.22">88</text>
<text x="340" y="236" text-anchor="middle" font-size="40" font-weight="700" fill="#ffd24a">04</text>
<text x="340" y="255" text-anchor="middle" font-size="11" fill="#b9831f">FEEDS</text>

<rect x="178" y="272" width="198" height="56" rx="5" fill="#140d04" stroke="#6b4a12" stroke-width="1"/>
<text x="190" y="292" font-size="11" fill="#b9831f">PROJECT DEADLINE</text>
<text x="190" y="320" font-size="28" font-weight="700" fill="#ff6b5a"><tspan class="softpulse">T-38d</tspan></text>
<text x="368" y="320" text-anchor="end" font-size="11" fill="#6b4a12">WESTERN ST.</text>
<rect x="190" y="326" width="178" height="3" rx="1.5" fill="#1a1c14"/>
<rect x="190" y="326" width="74" height="3" rx="1.5" fill="#ff6b5a" class="barpulse"/>
</g>

<g clip-path="url(#globeclip)">
<rect x="402" y="234" width="132" height="132" fill="#140d04"/>
<g class="term"><rect x="438" y="234" width="60" height="132" fill="url(#termg)"/></g>
<circle cx="468" cy="300" r="66" fill="none" stroke="#7a5410" stroke-width="1.4" opacity="0.6"/>
<ellipse cx="468" cy="300" rx="66" ry="22" fill="none" stroke="#b9831f" stroke-width="0.8"/>
<ellipse cx="468" cy="300" rx="66" ry="44" fill="none" stroke="#b9831f" stroke-width="0.8"/>
<line x1="402" y1="300" x2="534" y2="300" stroke="#b9831f" stroke-width="0.8"/>
<g class="spinslow">
<ellipse cx="468" cy="300" rx="66" ry="66" fill="none" stroke="#ffd24a" stroke-width="0.7" opacity="0.6"/>
<ellipse cx="468" cy="300" rx="50" ry="66" fill="none" stroke="#ffd24a" stroke-width="0.7" opacity="0.5"/>
<ellipse cx="468" cy="300" rx="32" ry="66" fill="none" stroke="#ffd24a" stroke-width="0.7" opacity="0.45"/>
<ellipse cx="468" cy="300" rx="14" ry="66" fill="none" stroke="#ffd24a" stroke-width="0.7" opacity="0.4"/>
</g>
<g class="spinr"><line x1="468" y1="234" x2="468" y2="366" stroke="#ffe9a0" stroke-width="1.2" opacity="0.5"/></g>
<circle cx="448" cy="282" r="2.4" fill="#ffd24a" class="softpulse"/>
<circle cx="492" cy="320" r="2.4" fill="#ff6b5a" class="blink"/>
<circle cx="478" cy="270" r="2.4" fill="#7dffb0"/>
<circle cx="452" cy="326" r="2.4" fill="#ffd24a" class="softpulse"/>
</g>
<circle cx="468" cy="300" r="66" fill="none" stroke="#7a5410" stroke-width="3"/>
<circle cx="468" cy="300" r="66" fill="none" stroke="#ffd24a" stroke-width="1.4"/>
<text x="468" y="356" text-anchor="middle" font-family="ui-monospace,Menlo,Consolas,monospace" font-size="11" fill="#b9831f">GLOBAL TRACK · BKK</text>

<g font-family="ui-monospace,Menlo,Consolas,monospace">
<rect x="40" y="386" width="190" height="170" rx="6" fill="#140d04" opacity="0.55"/>
<rect x="40" y="386" width="190" height="170" rx="6" fill="none" stroke="#6b4a12" stroke-width="1"/>
<rect x="40" y="386" width="190" height="22" rx="6" fill="#1a1c14"/>
<text x="48" y="401" font-size="11" fill="#ffd24a">01 DAILY BRIEF</text>
<circle cx="218" cy="397" r="4" fill="#ffd24a" class="softpulse"/>
<text x="52" y="428" font-size="12" fill="#b9831f">UNREAD</text><text x="218" y="428" text-anchor="end" font-size="12" fill="#ffd24a">201</text>
<text x="52" y="450" font-size="12" fill="#b9831f">FLAGGED</text><text x="218" y="450" text-anchor="end" font-size="12" fill="#ff6b5a">3</text>
<text x="52" y="472" font-size="12" fill="#b9831f">TASKS</text><text x="218" y="472" text-anchor="end" font-size="12" fill="#7dffb0">0</text>
<line x1="52" y1="486" x2="218" y2="486" stroke="#6b4a12" stroke-width="0.6"/>
<rect x="52" y="500" width="10" height="40" fill="#3a2a08"/><rect x="52" y="514" width="10" height="26" fill="#ffd24a"/>
<rect x="68" y="500" width="10" height="40" fill="#3a2a08"/><rect x="68" y="508" width="10" height="32" fill="#ffd24a"/>
<rect x="84" y="500" width="10" height="40" fill="#3a2a08"/><rect x="84" y="522" width="10" height="18" fill="#ffd24a"/>
<rect x="100" y="500" width="10" height="40" fill="#3a2a08"/><rect x="100" y="504" width="10" height="36" fill="#ffd24a"/>
<rect x="116" y="500" width="10" height="40" fill="#3a2a08"/><rect x="116" y="518" width="10" height="22" fill="#ffd24a"/>
<rect x="132" y="500" width="10" height="40" fill="#3a2a08"/><rect x="132" y="510" width="10" height="30" fill="#ffd24a" class="barpulse"/>
<text x="218" y="538" text-anchor="end" font-size="11" fill="#6b4a12">INBOX FLOW</text>
</g>

<g font-family="ui-monospace,Menlo,Consolas,monospace">
<rect x="245" y="386" width="190" height="170" rx="6" fill="#140d04" opacity="0.55"/>
<rect x="245" y="386" width="190" height="170" rx="6" fill="none" stroke="#6b4a12" stroke-width="1"/>
<rect x="245" y="386" width="190" height="22" rx="6" fill="#1a1c14"/>
<text x="253" y="401" font-size="11" fill="#ffd24a">02 MARKETS</text>
<circle cx="423" cy="397" r="4" fill="#7dffb0" class="softpulse"/>
<text x="257" y="428" font-size="12" fill="#b9831f">NVDA</text><text x="423" y="428" text-anchor="end" font-size="12" fill="#7dffb0">+2.4</text>
<text x="257" y="448" font-size="12" fill="#b9831f">VRT</text><text x="423" y="448" text-anchor="end" font-size="12" fill="#7dffb0">+1.1</text>
<text x="257" y="468" font-size="12" fill="#b9831f">NBIS</text><text x="423" y="468" text-anchor="end" font-size="12" fill="#ff6b5a">-3.2</text>
<text x="257" y="488" font-size="12" fill="#b9831f">AMD</text><text x="423" y="488" text-anchor="end" font-size="12" fill="#7dffb0">+0.6</text>
<polyline points="257,540 273,528 289,532 305,518 321,524 337,506 353,512 369,498 385,504 401,490 417,496" fill="none" stroke="#ffd24a" stroke-width="3" stroke-opacity="0.22" stroke-linejoin="round"/>
<polyline points="257,540 273,528 289,532 305,518 321,524 337,506 353,512 369,498 385,504 401,490 417,496" fill="none" stroke="#ffd24a" stroke-width="1.2" stroke-linejoin="round"/>
<circle cx="417" cy="496" r="2.8" fill="#7dffb0" class="softpulse"/>
</g>

<g font-family="ui-monospace,Menlo,Consolas,monospace">
<rect x="450" y="386" width="190" height="170" rx="6" fill="#140d04" opacity="0.55"/>
<rect x="450" y="386" width="190" height="170" rx="6" fill="none" stroke="#6b4a12" stroke-width="1"/>
<rect x="450" y="386" width="190" height="22" rx="6" fill="#1a1c14"/>
<text x="458" y="401" font-size="11" fill="#ffd24a">04 AGENT OPS</text>
<circle cx="628" cy="397" r="4" fill="#ffd24a" class="softpulse"/>
<circle cx="462" cy="424" r="3.5" fill="#7dffb0"/><text x="474" y="428" font-size="12" fill="#b9831f">hal-openclaw</text><text x="628" y="428" text-anchor="end" font-size="11" fill="#7dffb0">RUN</text>
<circle cx="462" cy="446" r="3.5" fill="#ffd24a" class="softpulse"/><text x="474" y="450" font-size="12" fill="#b9831f">mail-agent</text><text x="628" y="450" text-anchor="end" font-size="11" fill="#ffd24a">SYNC</text>
<circle cx="462" cy="468" r="3.5" fill="#ff6b5a" class="blink"/><text x="474" y="472" font-size="12" fill="#b9831f">market-agent</text><text x="628" y="472" text-anchor="end" font-size="11" fill="#ff6b5a">WAIT</text>
<line x1="462" y1="486" x2="628" y2="486" stroke="#6b4a12" stroke-width="0.6"/>
<text x="462" y="508" font-size="11" fill="#6b4a12">QUEUE DEPTH</text>
<rect x="462" y="516" width="166" height="8" rx="3" fill="#140d04" stroke="#6b4a12" stroke-width="0.6"/>
<rect x="462" y="516" width="104" height="8" rx="3" fill="#ffd24a" class="barpulse"/>
<text x="462" y="542" font-size="11" fill="#b9831f">PROJECTS 62%</text>
<rect x="462" y="546" width="166" height="6" rx="3" fill="#140d04" stroke="#6b4a12" stroke-width="0.6"/>
<rect x="462" y="546" width="103" height="6" rx="3" fill="#7dffb0"/>
</g>

<g font-family="ui-monospace,Menlo,Consolas,monospace">
<rect x="40" y="570" width="600" height="74" rx="6" fill="#140d04" opacity="0.55"/>
<rect x="40" y="570" width="600" height="74" rx="6" fill="none" stroke="#6b4a12" stroke-width="1"/>
<rect x="40" y="570" width="600" height="20" rx="6" fill="#1a1c14"/>
<text x="48" y="584" font-size="11" fill="#ffd24a">05 LIFE ADMIN</text>
<text x="632" y="584" text-anchor="end" font-size="11" fill="#6b4a12">5 OPEN ITEMS</text>
<g font-size="11">
<circle cx="56" cy="608" r="3" fill="#ff6b5a" class="blink"/><text x="66" y="612" fill="#b9831f">TESLA LEMON-LAW</text>
<circle cx="226" cy="608" r="3" fill="#ffd24a"/><text x="236" y="612" fill="#b9831f">SKIN ROUTINE</text>
<circle cx="376" cy="608" r="3" fill="#ffd24a"/><text x="386" y="612" fill="#b9831f">MOM · POA</text>
<circle cx="56" cy="630" r="3" fill="#7dffb0"/><text x="66" y="634" fill="#b9831f">DOG WALK · 1700</text>
<circle cx="226" cy="630" r="3" fill="#ffd24a"/><text x="236" y="634" fill="#b9831f">HOME BILLS</text>
<circle cx="376" cy="630" r="3" fill="#7dffb0"/><text x="386" y="634" fill="#b9831f">WALL SHOPS · OK</text>
</g>
</g>

<rect x="40" y="656" width="600" height="40" rx="6" fill="#140d04"/>
<rect x="40" y="656" width="600" height="40" rx="6" fill="none" stroke="#6b4a12" stroke-width="1"/>
<g clip-path="url(#tickclip)">
<line x1="40" y1="668" x2="640" y2="668" stroke="#6b4a12" stroke-width="0.4" opacity="0.5"/>
<g class="crew">
<g transform="translate(0,684)"><circle cx="0" cy="-12" r="1.6" fill="#ffd24a"/><line x1="0" y1="-10" x2="0" y2="-4" stroke="#ffd24a" stroke-width="1.4"/><g class="legs"><line x1="0" y1="-4" x2="-3" y2="0" stroke="#ffd24a" stroke-width="1.4"/><line x1="0" y1="-4" x2="3" y2="0" stroke="#ffd24a" stroke-width="1.4"/></g></g>
<g transform="translate(40,684)"><circle cx="0" cy="-12" r="1.6" fill="#b9831f"/><line x1="0" y1="-10" x2="0" y2="-4" stroke="#b9831f" stroke-width="1.4"/><g class="legs"><line x1="0" y1="-4" x2="3" y2="0" stroke="#b9831f" stroke-width="1.4"/><line x1="0" y1="-4" x2="-3" y2="0" stroke="#b9831f" stroke-width="1.4"/></g></g>
<g transform="translate(80,684)"><circle cx="0" cy="-12" r="1.6" fill="#ffd24a"/><line x1="0" y1="-10" x2="0" y2="-4" stroke="#ffd24a" stroke-width="1.4"/><g class="legs"><line x1="0" y1="-4" x2="-3" y2="0" stroke="#ffd24a" stroke-width="1.4"/><line x1="0" y1="-4" x2="3" y2="0" stroke="#ffd24a" stroke-width="1.4"/></g></g>
<g transform="translate(120,684)"><circle cx="0" cy="-12" r="1.6" fill="#7dffb0"/><line x1="0" y1="-10" x2="0" y2="-4" stroke="#7dffb0" stroke-width="1.4"/><g class="legs"><line x1="0" y1="-4" x2="3" y2="0" stroke="#7dffb0" stroke-width="1.4"/><line x1="0" y1="-4" x2="-3" y2="0" stroke="#7dffb0" stroke-width="1.4"/></g></g>
<g transform="translate(160,684)"><circle cx="0" cy="-12" r="1.6" fill="#b9831f"/><line x1="0" y1="-10" x2="0" y2="-4" stroke="#b9831f" stroke-width="1.4"/><g class="legs"><line x1="0" y1="-4" x2="-3" y2="0" stroke="#b9831f" stroke-width="1.4"/><line x1="0" y1="-4" x2="3" y2="0" stroke="#b9831f" stroke-width="1.4"/></g></g>
<g transform="translate(210,684)"><circle cx="0" cy="-12" r="1.6" fill="#ffd24a"/><line x1="0" y1="-10" x2="0" y2="-4" stroke="#ffd24a" stroke-width="1.4"/><g class="legs"><line x1="0" y1="-4" x2="3" y2="0" stroke="#ffd24a" stroke-width="1.4"/><line x1="0" y1="-4" x2="-3" y2="0" stroke="#ffd24a" stroke-width="1.4"/></g></g>
</g>
<text x="660" y="681" font-family="ui-monospace,Menlo,Consolas,monospace" font-size="11" fill="#6b4a12" class="softpulse">▸ CREW MARCHING</text>
</g>
<text x="48" y="722" font-family="ui-monospace,Menlo,Consolas,monospace" font-size="11" fill="#b9831f">STATUS ▸ 201 UNREAD · 3 FLAGGED · NBIS -3.2 · WESTERN STATE T-38d · ALL AGENTS NOMINAL · DIGEST 06:00 SENT ▸<tspan class="blink"> █</tspan></text>
<text x="48" y="740" font-family="ui-monospace,Menlo,Consolas,monospace" font-size="11" fill="#6b4a12">UPLINK ▸ SUPABASE OK · CRON OK · THEME: AMBER MAINFRAME · RENTON 06:04</text>

<g class="scandrift"><rect x="26" y="26" width="628" height="720" fill="url(#scan)" pointer-events="none"/></g>
<rect x="26" y="26" width="628" height="720" rx="8" fill="url(#vig)" pointer-events="none"/>
</svg>