<svg width="100%" viewBox="0 0 680 820" role="img" xmlns="http://www.w3.org/2000/svg">
<title>ADAM // COMMAND CENTER — Tactical Track Grid</title>
<desc>A green-phosphor NORAD-style command dashboard: a dot-grid world map with a scanning sweep, satellite blips on curved orbits, a Bangkok-to-Seattle great-circle route, a radar router table, a live radar sweep, twin spinning mini-globes, station readouts for daily brief, markets and agent ops, marching field-crew sprites, and a bottom status ticker — all rendered with layered phosphor glow, drifting scanlines and a CRT vignette.</desc>
<defs>
<radialGradient id="vig" cx="50%" cy="50%" r="75%">
<stop offset="52%" stop-color="#000000" stop-opacity="0"/>
<stop offset="100%" stop-color="#000000" stop-opacity="0.88"/>
</radialGradient>
<radialGradient id="globeShade" cx="38%" cy="34%" r="72%">
<stop offset="0%" stop-color="#123318" stop-opacity="1"/>
<stop offset="100%" stop-color="#04100a" stop-opacity="1"/>
</radialGradient>
<radialGradient id="screenGlow" cx="50%" cy="44%" r="60%">
<stop offset="0%" stop-color="#0e2615" stop-opacity="0.55"/>
<stop offset="100%" stop-color="#06100a" stop-opacity="0"/>
</radialGradient>
<linearGradient id="sweepGrad" x1="0" y1="0" x2="1" y2="0">
<stop offset="0%" stop-color="#41ff7e" stop-opacity="0"/>
<stop offset="50%" stop-color="#9dffc6" stop-opacity="0.6"/>
<stop offset="100%" stop-color="#41ff7e" stop-opacity="0"/>
</linearGradient>
<linearGradient id="radarGrad" x1="0" y1="0" x2="1" y2="0">
<stop offset="0%" stop-color="#7dffb0" stop-opacity="0.65"/>
<stop offset="100%" stop-color="#41ff7e" stop-opacity="0"/>
</linearGradient>
<linearGradient id="termGrad" x1="0" y1="0" x2="1" y2="0">
<stop offset="0%" stop-color="#41ff7e" stop-opacity="0"/>
<stop offset="50%" stop-color="#9dffc6" stop-opacity="0.45"/>
<stop offset="100%" stop-color="#41ff7e" stop-opacity="0"/>
</linearGradient>
<linearGradient id="bezelGrad" x1="0" y1="0" x2="0" y2="1">
<stop offset="0%" stop-color="#34372a"/>
<stop offset="50%" stop-color="#23261b"/>
<stop offset="100%" stop-color="#15170f"/>
</linearGradient>
<pattern id="scan" width="4" height="4" patternUnits="userSpaceOnUse">
<rect width="4" height="2" fill="#000000" opacity="0.24"/>
</pattern>
<clipPath id="mapClip"><rect x="186" y="196" width="308" height="206"/></clipPath>
<clipPath id="globeClipL"><circle cx="92" cy="300" r="44"/></clipPath>
<clipPath id="globeClipR"><circle cx="588" cy="300" r="44"/></clipPath>
<style>
text{font-family:ui-monospace,"SFMono-Regular",Menlo,Consolas,monospace;}
.blink{animation:blink 1.3s steps(1) infinite;}
@keyframes blink{0%,60%{opacity:1}61%,100%{opacity:0.18}}
.blinkF{animation:blink 0.7s steps(1) infinite;}
.flick{animation:flick 2.4s ease-in-out infinite;}
@keyframes flick{0%,100%{opacity:0.9}48%{opacity:1}52%{opacity:0.82}}
.spin{animation:spin 14s linear infinite;transform-origin:92px 300px;}
.spinR{animation:spin 16s linear infinite;transform-origin:588px 300px;}
@keyframes spin{from{transform:rotate(0deg)}to{transform:rotate(360deg)}}
.drift{animation:drift 1.1s steps(2) infinite;}
@keyframes drift{from{transform:translateY(0)}to{transform:translateY(4px)}}
.legA{animation:legA 0.32s steps(1) infinite;}
.legB{animation:legB 0.32s steps(1) infinite;}
@keyframes legA{0%,50%{opacity:1}51%,100%{opacity:0}}
@keyframes legB{0%,50%{opacity:0}51%,100%{opacity:1}}
.pulseBar{animation:pulseBar 2.6s ease-in-out infinite;}
@keyframes pulseBar{0%,100%{opacity:0.45}50%{opacity:1}}
.tw{animation:tw 2.2s ease-in-out infinite;}
@keyframes tw{0%,100%{opacity:0.5}50%{opacity:1}}
</style>
</defs>

<rect x="0" y="0" width="680" height="820" fill="#06100a"/>
<rect x="6" y="6" width="668" height="808" rx="14" fill="url(#bezelGrad)"/>
<rect x="9" y="9" width="662" height="802" rx="12" fill="none" stroke="#3f4231" stroke-width="2"/>
<rect x="9" y="9" width="662" height="802" rx="12" fill="none" stroke="#15170f" stroke-width="1"/>
<rect x="18" y="18" width="644" height="784" rx="9" fill="#0a1409"/>
<rect x="18" y="18" width="644" height="784" rx="9" fill="url(#screenGlow)"/>
<rect x="18" y="18" width="644" height="784" rx="9" fill="none" stroke="#1c8f46" stroke-width="2" opacity="0.3"/>
<rect x="18" y="18" width="644" height="784" rx="9" fill="none" stroke="#41ff7e" stroke-width="1" opacity="0.45"/>
<g fill="#52553f" stroke="#15170f" stroke-width="0.6">
<circle cx="24" cy="24" r="5"/><circle cx="656" cy="24" r="5"/>
<circle cx="24" cy="796" r="5"/><circle cx="656" cy="796" r="5"/>
</g>
<g fill="#7dffb0" opacity="0.5">
<circle cx="24" cy="24" r="1.4"/><circle cx="656" cy="24" r="1.4"/>
<circle cx="24" cy="796" r="1.4"/><circle cx="656" cy="796" r="1.4"/>
</g>

<rect x="26" y="28" width="628" height="46" rx="4" fill="#0d1b0c" stroke="#1c8f46" stroke-width="1"/>
<rect x="26" y="28" width="628" height="46" rx="4" fill="none" stroke="#41ff7e" stroke-width="0.6" opacity="0.3"/>
<g>
<text x="40" y="50" font-size="19" font-weight="700" fill="#0d6b30">ADAM // COMMAND CENTER</text>
<text x="39.4" y="49.6" font-size="19" font-weight="700" fill="#1c8f46">ADAM // COMMAND CENTER</text>
<text x="39" y="49" font-size="19" font-weight="700" fill="#7dffb0">ADAM // COMMAND CENTER</text>
<text x="40" y="66" font-size="11" fill="#2bd964">RENTON · WA — GLOBAL TRACK SYS</text>
</g>
<g class="flick">
<text x="640.4" y="48.4" font-size="18" font-weight="700" fill="#1c8f46" text-anchor="end">06:04:12</text>
<text x="640" y="48" font-size="18" font-weight="700" fill="#9dffc6" text-anchor="end">06:04:12</text>
</g>
<text x="640" y="64" font-size="11" fill="#2bd964" text-anchor="end">2026-06-20 · SAT</text>
<g>
<text x="470" y="46" font-size="11" fill="#2bd964" text-anchor="end">BKK 20:04</text>
<text x="470" y="62" font-size="11" fill="#2bd964" text-anchor="end">SEA 06:04</text>
</g>
<g transform="translate(486,44)">
<circle r="7" fill="#41ff7e" opacity="0.22" class="blink"/>
<circle r="4" fill="#41ff7e" opacity="0.4" class="blink"/>
<circle r="2.4" fill="#9dffc6"/>
</g>
<text x="496" y="48" font-size="11" fill="#41ff7e">SYSTEM ONLINE</text>

<rect x="26" y="80" width="628" height="368" rx="4" fill="#0d1b0c" stroke="#1c8f46" stroke-width="1"/>
<rect x="26" y="80" width="628" height="368" rx="4" fill="none" stroke="#41ff7e" stroke-width="0.6" opacity="0.25"/>
<text x="40" y="98" font-size="12" fill="#7dffb0">▌GLOBAL TRACK — ORBITAL SURVEILLANCE GRID</text>
<text x="640" y="98" font-size="11" fill="#2bd964" text-anchor="end">SECTOR 7G · LOCK</text>

<g clip-path="url(#mapClip)">
<rect x="186" y="196" width="308" height="206" fill="#05130b"/>
<g fill="#1c8f46" opacity="0.35">
<line x1="186" y1="248" x2="494" y2="248"/><line x1="186" y1="300" x2="494" y2="300"/><line x1="186" y1="350" x2="494" y2="350"/>
</g>
<g fill="#2bd964">
<circle cx="206" cy="232" r="1.3"/><circle cx="214" cy="228" r="1.3"/><circle cx="222" cy="234" r="1.3"/><circle cx="230" cy="240" r="1.3"/><circle cx="218" cy="244" r="1.3"/><circle cx="210" cy="250" r="1.3"/><circle cx="226" cy="252" r="1.3"/><circle cx="234" cy="246" r="1.3"/>
<circle cx="240" cy="262" r="1.3"/><circle cx="232" cy="270" r="1.3"/><circle cx="238" cy="278" r="1.3"/><circle cx="246" cy="286" r="1.3"/><circle cx="244" cy="296" r="1.3"/><circle cx="250" cy="306" r="1.3"/>
<circle cx="300" cy="226" r="1.3"/><circle cx="308" cy="222" r="1.3"/><circle cx="316" cy="226" r="1.3"/><circle cx="324" cy="222" r="1.3"/><circle cx="332" cy="228" r="1.3"/><circle cx="340" cy="224" r="1.3"/><circle cx="348" cy="230" r="1.3"/><circle cx="356" cy="226" r="1.3"/>
<circle cx="306" cy="234" r="1.3"/><circle cx="314" cy="238" r="1.3"/><circle cx="322" cy="234" r="1.3"/><circle cx="330" cy="240" r="1.3"/><circle cx="338" cy="236" r="1.3"/><circle cx="346" cy="242" r="1.3"/><circle cx="354" cy="238" r="1.3"/><circle cx="362" cy="244" r="1.3"/>
<circle cx="312" cy="250" r="1.3"/><circle cx="320" cy="256" r="1.3"/><circle cx="328" cy="252" r="1.3"/><circle cx="336" cy="258" r="1.3"/><circle cx="344" cy="254" r="1.3"/><circle cx="352" cy="260" r="1.3"/>
<circle cx="318" cy="268" r="1.3"/><circle cx="326" cy="274" r="1.3"/><circle cx="334" cy="270" r="1.3"/><circle cx="342" cy="276" r="1.3"/>
<circle cx="338" cy="290" r="1.3"/><circle cx="346" cy="296" r="1.3"/><circle cx="342" cy="306" r="1.3"/><circle cx="350" cy="314" r="1.3"/><circle cx="346" cy="324" r="1.3"/><circle cx="352" cy="334" r="1.3"/>
<circle cx="396" cy="232" r="1.3"/><circle cx="404" cy="228" r="1.3"/><circle cx="412" cy="234" r="1.3"/><circle cx="420" cy="230" r="1.3"/><circle cx="428" cy="236" r="1.3"/><circle cx="436" cy="232" r="1.3"/><circle cx="444" cy="238" r="1.3"/><circle cx="452" cy="234" r="1.3"/><circle cx="460" cy="240" r="1.3"/>
<circle cx="402" cy="242" r="1.3"/><circle cx="410" cy="246" r="1.3"/><circle cx="418" cy="242" r="1.3"/><circle cx="426" cy="248" r="1.3"/><circle cx="434" cy="244" r="1.3"/><circle cx="442" cy="250" r="1.3"/><circle cx="450" cy="246" r="1.3"/><circle cx="458" cy="252" r="1.3"/><circle cx="466" cy="248" r="1.3"/>
<circle cx="424" cy="258" r="1.3"/><circle cx="432" cy="264" r="1.3"/><circle cx="440" cy="260" r="1.3"/><circle cx="448" cy="266" r="1.3"/><circle cx="456" cy="262" r="1.3"/><circle cx="464" cy="268" r="1.3"/>
<circle cx="438" cy="278" r="1.3"/><circle cx="446" cy="284" r="1.3"/><circle cx="454" cy="280" r="1.3"/><circle cx="450" cy="294" r="1.3"/><circle cx="456" cy="304" r="1.3"/>
<circle cx="430" cy="320" r="1.3"/><circle cx="438" cy="328" r="1.3"/><circle cx="446" cy="336" r="1.3"/><circle cx="442" cy="348" r="1.3"/><circle cx="450" cy="356" r="1.3"/>
<circle cx="262" cy="340" r="1.3"/><circle cx="270" cy="348" r="1.3"/><circle cx="266" cy="358" r="1.3"/><circle cx="274" cy="366" r="1.3"/><circle cx="270" cy="376" r="1.3"/>
</g>
<g fill="#7dffb0">
<circle cx="230" cy="240" r="0.9" class="tw"/><circle cx="338" cy="236" r="0.9" class="tw"/><circle cx="442" cy="250" r="0.9" class="tw"/><circle cx="266" cy="358" r="0.9" class="tw"/><circle cx="450" cy="356" r="0.9" class="tw"/><circle cx="318" cy="268" r="0.9" class="tw"/>
</g>
<g transform="translate(0,0)">
<rect x="-44" y="196" width="44" height="206" fill="url(#sweepGrad)">
<animate attributeName="x" values="186;450;186" dur="6s" repeatCount="indefinite"/>
</rect>
<rect x="0" y="196" width="2" height="206" fill="#9dffc6" opacity="0.95">
<animate attributeName="x" values="208;472;208" dur="6s" repeatCount="indefinite"/>
</rect>
</g>
</g>
<rect x="186" y="196" width="308" height="206" fill="none" stroke="#1c8f46" stroke-width="1" opacity="0.8"/>
<rect x="186" y="196" width="308" height="206" fill="none" stroke="#41ff7e" stroke-width="0.5" opacity="0.3"/>
<g stroke="#1c8f46" stroke-width="0.5" opacity="0.35">
<line x1="263" y1="196" x2="263" y2="402"/>
<line x1="340" y1="196" x2="340" y2="402"/>
<line x1="417" y1="196" x2="417" y2="402"/>
</g>
<g fill="#41ff7e" opacity="0.7">
<path d="M186 196 l8 0 M186 196 l0 8"/>
<path d="M494 196 l-8 0 M494 196 l0 8" stroke="#41ff7e" stroke-width="1" fill="none"/>
</g>
<g stroke="#41ff7e" stroke-width="1.2" opacity="0.8" fill="none">
<path d="M186 202 l0 -6 l6 0"/><path d="M494 202 l0 -6 l-6 0"/>
<path d="M186 396 l0 6 l6 0"/><path d="M494 396 l0 6 l-6 0"/>
</g>

<g clip-path="url(#mapClip)">
<path d="M250 306 Q340 150 450 246" fill="none" stroke="#41ff7e" stroke-width="4" stroke-opacity="0.18" stroke-linecap="round"/>
<path d="M250 306 Q340 150 450 246" fill="none" stroke="#9dffc6" stroke-width="1.2" stroke-dasharray="5 5" stroke-linecap="round">
<animate attributeName="stroke-dashoffset" values="0;-20" dur="1s" repeatCount="indefinite"/>
</path>
<circle r="5" fill="#ffd24a" opacity="0.3">
<animateMotion dur="5s" repeatCount="indefinite" path="M250 306 Q340 150 450 246"/>
</circle>
<circle r="2.6" fill="#ffe89a">
<animateMotion dur="5s" repeatCount="indefinite" path="M250 306 Q340 150 450 246"/>
</circle>
</g>
<g>
<circle cx="250" cy="306" r="5" fill="#ff6b5a" opacity="0.28" class="blink"/>
<circle cx="250" cy="306" r="2.2" fill="#ff8d7f"/>
<text x="234" y="320" font-size="11" fill="#9dffc6" text-anchor="end">SEATTLE</text>
<circle cx="450" cy="246" r="5" fill="#ffd24a" opacity="0.28" class="blink"/>
<circle cx="450" cy="246" r="2.2" fill="#ffe89a"/>
<text x="458" y="244" font-size="11" fill="#9dffc6">BANGKOK</text>
</g>

<g clip-path="url(#mapClip)">
<ellipse cx="340" cy="300" rx="135" ry="78" fill="none" stroke="#2bd964" stroke-width="0.6" opacity="0.32"/>
<ellipse cx="340" cy="300" rx="100" ry="120" fill="none" stroke="#2bd964" stroke-width="0.6" opacity="0.24"/>
<ellipse cx="340" cy="300" rx="120" ry="40" fill="none" stroke="#2bd964" stroke-width="0.5" opacity="0.18"/>
<circle r="3" fill="#9dffc6">
<animateMotion dur="9s" repeatCount="indefinite" path="M340 300 m -135 0 a 135 78 0 1 0 270 0 a 135 78 0 1 0 -270 0"/>
</circle>
<circle r="2.5" fill="#41ff7e">
<animateMotion dur="7s" repeatCount="indefinite" path="M340 300 m 0 -120 a 100 120 0 1 1 0 240 a 100 120 0 1 1 0 -240"/>
</circle>
<circle r="2.5" fill="#ffd24a">
<animateMotion dur="11s" repeatCount="indefinite" path="M340 300 m -135 0 a 135 78 0 1 1 270 0 a 135 78 0 1 1 -270 0"/>
</circle>
</g>

<rect x="40" y="358" width="172" height="40" rx="3" fill="#05130b" stroke="#1c8f46" stroke-width="0.8"/>
<text x="48" y="372" font-size="11" fill="#2bd964">AIRCRAFT TRACK / ROUTE</text>
<text x="48" y="386" font-size="11" fill="#7dffb0">SEA→BKK · FL380 · 512KT</text>
<text x="48" y="396" font-size="11" fill="#2bd964">ETA 14:22 · TRK 297°</text>

<rect x="468" y="358" width="172" height="40" rx="3" fill="#05130b" stroke="#1c8f46" stroke-width="0.8"/>
<text x="476" y="372" font-size="11" fill="#2bd964">TRACK READOUT</text>
<text x="476" y="386" font-size="11" fill="#7dffb0">SAT-LOCK 06/12 · SNR 41dB</text>
<text x="476" y="396" font-size="11" fill="#ffd24a">DRIFT 0.04° · NOMINAL</text>

<g>
<circle cx="92" cy="300" r="46" fill="#41ff7e" opacity="0.08"/>
<circle cx="92" cy="300" r="44" fill="url(#globeShade)" stroke="#1c8f46" stroke-width="1"/>
<circle cx="92" cy="300" r="44" fill="none" stroke="#41ff7e" stroke-width="0.5" opacity="0.4"/>
<g clip-path="url(#globeClipL)">
<g class="spin">
<ellipse cx="92" cy="300" rx="44" ry="44" fill="none" stroke="#2bd964" stroke-width="0.6" opacity="0.5"/>
<ellipse cx="92" cy="300" rx="30" ry="44" fill="none" stroke="#2bd964" stroke-width="0.6" opacity="0.4"/>
<ellipse cx="92" cy="300" rx="14" ry="44" fill="none" stroke="#2bd964" stroke-width="0.6" opacity="0.3"/>
<line x1="92" y1="256" x2="92" y2="344" stroke="#2bd964" stroke-width="0.6" opacity="0.4"/>
</g>
<ellipse cx="92" cy="282" rx="44" ry="13" fill="none" stroke="#1c8f46" stroke-width="0.5" opacity="0.5"/>
<ellipse cx="92" cy="300" rx="44" ry="0.5" fill="none" stroke="#7dffb0" stroke-width="0.7" opacity="0.7"/>
<ellipse cx="92" cy="318" rx="44" ry="13" fill="none" stroke="#1c8f46" stroke-width="0.5" opacity="0.5"/>
<rect x="48" y="256" width="16" height="88" fill="url(#termGrad)">
<animate attributeName="x" values="48;124;48" dur="4s" repeatCount="indefinite"/>
</rect>
</g>
<text x="92" y="360" font-size="11" fill="#2bd964" text-anchor="middle">SCAN: AMER</text>
</g>

<g>
<circle cx="588" cy="300" r="46" fill="#41ff7e" opacity="0.08"/>
<circle cx="588" cy="300" r="44" fill="url(#globeShade)" stroke="#1c8f46" stroke-width="1"/>
<circle cx="588" cy="300" r="44" fill="none" stroke="#41ff7e" stroke-width="0.5" opacity="0.4"/>
<g clip-path="url(#globeClipR)">
<g class="spinR">
<ellipse cx="588" cy="300" rx="44" ry="44" fill="none" stroke="#2bd964" stroke-width="0.6" opacity="0.5"/>
<ellipse cx="588" cy="300" rx="30" ry="44" fill="none" stroke="#2bd964" stroke-width="0.6" opacity="0.4"/>
<ellipse cx="588" cy="300" rx="14" ry="44" fill="none" stroke="#2bd964" stroke-width="0.6" opacity="0.3"/>
<line x1="588" y1="256" x2="588" y2="344" stroke="#2bd964" stroke-width="0.6" opacity="0.4"/>
</g>
<ellipse cx="588" cy="282" rx="44" ry="13" fill="none" stroke="#1c8f46" stroke-width="0.5" opacity="0.5"/>
<ellipse cx="588" cy="300" rx="44" ry="0.5" fill="none" stroke="#7dffb0" stroke-width="0.7" opacity="0.7"/>
<ellipse cx="588" cy="318" rx="44" ry="13" fill="none" stroke="#1c8f46" stroke-width="0.5" opacity="0.5"/>
<rect x="544" y="256" width="16" height="88" fill="url(#termGrad)">
<animate attributeName="x" values="620;544;620" dur="5s" repeatCount="indefinite"/>
</rect>
</g>
<text x="588" y="360" font-size="11" fill="#2bd964" text-anchor="middle">SCAN: ASIA</text>
</g>

<rect x="40" y="110" width="120" height="118" rx="3" fill="#05130b" stroke="#1c8f46" stroke-width="0.8"/>
<rect x="40" y="110" width="120" height="16" fill="#0d1b0c"/>
<text x="48" y="122" font-size="11" fill="#7dffb0">RADAR ROUTER</text>
<g font-size="11">
<text x="48" y="142" fill="#41ff7e">SAT-09 ▸ LCK</text><text x="152" y="142" fill="#9dffc6" text-anchor="end">●</text>
<text x="48" y="155" fill="#41ff7e">SAT-14 ▸ LCK</text><text x="152" y="155" fill="#9dffc6" text-anchor="end">●</text>
<text x="48" y="168" fill="#2bd964">SAT-22 ▸ ACQ</text><text x="152" y="168" fill="#ffd24a" text-anchor="end" class="blink">●</text>
<text x="48" y="181" fill="#41ff7e">SAT-31 ▸ LCK</text><text x="152" y="181" fill="#9dffc6" text-anchor="end">●</text>
<text x="48" y="194" fill="#2bd964">SAT-47 ▸ SCN</text><text x="152" y="194" fill="#41ff7e" text-anchor="end" class="blink">●</text>
<text x="48" y="207" fill="#ff6b5a">SAT-53 ▸ LOS</text><text x="152" y="207" fill="#ff6b5a" text-anchor="end" class="blinkF">●</text>
<text x="48" y="220" fill="#41ff7e">SAT-68 ▸ LCK</text><text x="152" y="220" fill="#9dffc6" text-anchor="end">●</text>
</g>

<g transform="translate(520,110)">
<rect x="0" y="0" width="120" height="118" rx="3" fill="#05130b" stroke="#1c8f46" stroke-width="0.8"/>
<rect x="0" y="0" width="120" height="16" fill="#0d1b0c"/>
<text x="8" y="12" font-size="11" fill="#7dffb0">RADAR SWEEP</text>
<g transform="translate(60,70)">
<circle r="40" fill="#41ff7e" opacity="0.05"/>
<circle r="40" fill="none" stroke="#1c8f46" stroke-width="0.6" opacity="0.5"/>
<circle r="27" fill="none" stroke="#1c8f46" stroke-width="0.6" opacity="0.4"/>
<circle r="14" fill="none" stroke="#1c8f46" stroke-width="0.6" opacity="0.3"/>
<line x1="-40" y1="0" x2="40" y2="0" stroke="#1c8f46" stroke-width="0.5" opacity="0.4"/>
<line x1="0" y1="-40" x2="0" y2="40" stroke="#1c8f46" stroke-width="0.5" opacity="0.4"/>
<g><animateTransform attributeName="transform" type="rotate" from="0" to="360" dur="3.5s" repeatCount="indefinite"/>
<path d="M0 0 L40 0 A40 40 0 0 1 28 28 Z" fill="url(#radarGrad)"/>
<line x1="0" y1="0" x2="40" y2="0" stroke="#9dffc6" stroke-width="1.2"/>
</g>
<circle cx="22" cy="-14" r="1.8" fill="#ffd24a" class="blink"/>
<circle cx="-18" cy="20" r="1.8" fill="#41ff7e"/>
<circle cx="14" cy="24" r="1.8" fill="#41ff7e" class="blinkF"/>
</g>
</g>

<rect x="26" y="454" width="206" height="156" rx="4" fill="#0d1b0c" stroke="#1c8f46" stroke-width="1"/>
<rect x="26" y="454" width="206" height="156" rx="4" fill="none" stroke="#41ff7e" stroke-width="0.5" opacity="0.25"/>
<rect x="26" y="454" width="206" height="20" rx="4" fill="#05130b"/>
<text x="36" y="468" font-size="11" fill="#7dffb0">01 DAILY BRIEF</text>
<circle cx="220" cy="464" r="3" fill="#41ff7e" class="blink"/>
<g font-size="11">
<text x="36" y="492" fill="#2bd964">UNREAD</text><text x="222" y="492" fill="#9dffc6" text-anchor="end">201</text>
<text x="36" y="510" fill="#2bd964">FLAGGED</text><text x="222" y="510" fill="#ffd24a" text-anchor="end">3</text>
<text x="36" y="528" fill="#2bd964">TASKS</text><text x="222" y="528" fill="#41ff7e" text-anchor="end">0</text>
</g>
<rect x="36" y="540" width="186" height="8" fill="#05130b" stroke="#1c8f46" stroke-width="0.5"/>
<rect x="36" y="540" width="138" height="8" fill="#41ff7e" opacity="0.5" class="pulseBar"/>
<text x="36" y="566" font-size="11" fill="#2bd964">INBOX FLOW · 74% PARSED</text>
<polyline points="36,596 52,588 68,592 84,580 100,586 116,572 132,584 148,576 164,582 180,570 196,578 212,568" fill="none" stroke="#41ff7e" stroke-width="2.6" stroke-opacity="0.2" stroke-linejoin="round"/>
<polyline points="36,596 52,588 68,592 84,580 100,586 116,572 132,584 148,576 164,582 180,570 196,578 212,568" fill="none" stroke="#9dffc6" stroke-width="1.4" stroke-linejoin="round"/>
<circle cx="212" cy="568" r="2.4" fill="#9dffc6"/>

<rect x="237" y="454" width="206" height="156" rx="4" fill="#0d1b0c" stroke="#1c8f46" stroke-width="1"/>
<rect x="237" y="454" width="206" height="156" rx="4" fill="none" stroke="#41ff7e" stroke-width="0.5" opacity="0.25"/>
<rect x="237" y="454" width="206" height="20" rx="4" fill="#05130b"/>
<text x="247" y="468" font-size="11" fill="#7dffb0">02 MARKETS</text>
<circle cx="431" cy="464" r="3" fill="#41ff7e" class="blink"/>
<g font-size="11">
<text x="247" y="492" fill="#2bd964">NVDA</text><text x="370" y="492" fill="#41ff7e" text-anchor="end">+2.4</text>
<text x="247" y="508" fill="#2bd964">VRT</text><text x="370" y="508" fill="#41ff7e" text-anchor="end">+1.1</text>
<text x="247" y="524" fill="#2bd964">NBIS</text><text x="370" y="524" fill="#ff6b5a" text-anchor="end">-3.2</text>
<text x="247" y="540" fill="#2bd964">AMD</text><text x="370" y="540" fill="#41ff7e" text-anchor="end">+0.6</text>
</g>
<rect x="382" y="482" width="52" height="62" fill="#05130b" stroke="#1c8f46" stroke-width="0.5"/>
<polyline points="386,536 392,528 398,532 404,520 410,526 416,512 422,522 428,506 433,514" fill="none" stroke="#9dffc6" stroke-width="1.3" stroke-linejoin="round"/>
<text x="247" y="566" font-size="11" fill="#2bd964">INDEX +0.8% · VOL HI</text>
<polyline points="247,596 263,590 279,594 295,584 311,592 327,578 343,588 359,580 375,586 391,574 407,584 423,572" fill="none" stroke="#41ff7e" stroke-width="2.6" stroke-opacity="0.2" stroke-linejoin="round"/>
<polyline points="247,596 263,590 279,594 295,584 311,592 327,578 343,588 359,580 375,586 391,574 407,584 423,572" fill="none" stroke="#9dffc6" stroke-width="1.4" stroke-linejoin="round"/>
<circle cx="423" cy="572" r="2.4" fill="#9dffc6"/>

<rect x="448" y="454" width="206" height="156" rx="4" fill="#0d1b0c" stroke="#1c8f46" stroke-width="1"/>
<rect x="448" y="454" width="206" height="156" rx="4" fill="none" stroke="#41ff7e" stroke-width="0.5" opacity="0.25"/>
<rect x="448" y="454" width="206" height="20" rx="4" fill="#05130b"/>
<text x="458" y="468" font-size="11" fill="#7dffb0">03 AGENT OPS</text>
<circle cx="642" cy="464" r="3" fill="#ffd24a" class="blink"/>
<g font-size="11">
<text x="458" y="492" fill="#2bd964">hal-openclaw</text><circle cx="634" cy="488" r="3" fill="#41ff7e"/><text x="646" y="492" fill="#41ff7e" text-anchor="end">▸</text>
<text x="458" y="510" fill="#2bd964">mail-agent</text><circle cx="634" cy="506" r="3" fill="#41ff7e" class="blink"/><text x="646" y="510" fill="#41ff7e" text-anchor="end">▸</text>
<text x="458" y="528" fill="#2bd964">market-agent</text><circle cx="634" cy="524" r="3" fill="#ffd24a" class="blink"/><text x="646" y="528" fill="#ffd24a" text-anchor="end">▸</text>
</g>
<text x="458" y="552" font-size="11" fill="#2bd964">PROJECTS · WESTERN STATE</text>
<rect x="458" y="558" width="186" height="8" fill="#05130b" stroke="#1c8f46" stroke-width="0.5"/>
<rect x="458" y="558" width="115" height="8" fill="#41ff7e" opacity="0.6" class="pulseBar"/>
<text x="458" y="582" font-size="11" fill="#41ff7e">62% · WALL SHOPS · T-38d</text>
<text x="458" y="600" font-size="11" fill="#2bd964">LIFE: TESLA · POA · DOG WALK</text>

<rect x="26" y="620" width="628" height="40" rx="4" fill="#05130b" stroke="#1c8f46" stroke-width="1"/>
<text x="36" y="635" font-size="11" fill="#7dffb0">▌FIELD CREW — DEPLOY</text>
<text x="640" y="635" font-size="11" fill="#2bd964" text-anchor="end">EN ROUTE · 03 UNITS</text>
<g clip-path="url(#mapClip)"></g>
<g>
<g>
<animateTransform attributeName="transform" type="translate" from="60 0" to="540 0" dur="9s" repeatCount="indefinite"/>
<g stroke="#41ff7e" stroke-width="1.3" stroke-linecap="round">
<circle cx="0" cy="640" r="1.6" fill="#9dffc6" stroke="none"/>
<line x1="0" y1="641" x2="0" y2="648"/>
<g class="legA"><line x1="0" y1="648" x2="-3" y2="653"/><line x1="0" y1="648" x2="3" y2="653"/></g>
<g class="legB"><line x1="0" y1="648" x2="-1" y2="653"/><line x1="0" y1="648" x2="1" y2="653"/></g>
</g>
</g>
<g>
<animateTransform attributeName="transform" type="translate" from="40 0" to="520 0" dur="11s" repeatCount="indefinite"/>
<g stroke="#41ff7e" stroke-width="1.3" stroke-linecap="round">
<circle cx="0" cy="640" r="1.6" fill="#9dffc6" stroke="none"/>
<line x1="0" y1="641" x2="0" y2="648"/>
<g class="legB"><line x1="0" y1="648" x2="-3" y2="653"/><line x1="0" y1="648" x2="3" y2="653"/></g>
<g class="legA"><line x1="0" y1="648" x2="-1" y2="653"/><line x1="0" y1="648" x2="1" y2="653"/></g>
</g>
</g>
<g>
<animateTransform attributeName="transform" type="translate" from="100 0" to="580 0" dur="13s" repeatCount="indefinite"/>
<g stroke="#7dffb0" stroke-width="1.3" stroke-linecap="round">
<circle cx="0" cy="640" r="1.6" fill="#9dffc6" stroke="none"/>
<line x1="0" y1="641" x2="0" y2="648"/>
<g class="legA"><line x1="0" y1="648" x2="-3" y2="653"/><line x1="0" y1="648" x2="3" y2="653"/></g>
<g class="legB"><line x1="0" y1="648" x2="-1" y2="653"/><line x1="0" y1="648" x2="1" y2="653"/></g>
</g>
</g>
</g>

<rect x="26" y="668" width="628" height="118" rx="4" fill="#0d1b0c" stroke="#1c8f46" stroke-width="1"/>
<rect x="26" y="668" width="628" height="118" rx="4" fill="none" stroke="#41ff7e" stroke-width="0.5" opacity="0.25"/>
<text x="36" y="686" font-size="11" fill="#7dffb0">▌STATUS TICKER</text>
<rect x="36" y="698" width="608" height="14" fill="#05130b" opacity="0.5"/>
<g clip-path="url(#mapClip)"></g>
<text x="36" y="708" font-size="11" fill="#41ff7e">▸ SAT-22 ACQUIRING · ▸ ROUTE SEA→BKK NOMINAL · ▸ MAIL-AGENT SYNC 201 · ▸ NBIS -3.2 ALERT · ▸ DOG WALK 17:00 · <animate attributeName="x" values="640;-440" dur="18s" repeatCount="indefinite"/></text>
<rect x="36" y="718" width="608" height="14" fill="#05130b" opacity="0.5"/>
<text x="36" y="728" font-size="11" fill="#2bd964">▸ WESTERN STATE 62% · ▸ TESLA LEMON-LAW PENDING · ▸ MOM-POA FILE · ▸ SKIN ROUTINE 21:00 · ▸ HOME BILLS DUE · <animate attributeName="x" values="-340;680" dur="22s" repeatCount="indefinite"/></text>
<g font-size="11">
<text x="36" y="752" fill="#2bd964">UPLINK</text><text x="120" y="752" fill="#41ff7e">●●●●●●●○○○ 71%</text>
<text x="300" y="752" fill="#2bd964">PWR</text><text x="360" y="752" fill="#41ff7e">NOMINAL</text>
<text x="470" y="752" fill="#2bd964">CORE</text><text x="540" y="752" fill="#ffd24a">38.6°C</text>
</g>
<rect x="36" y="762" width="608" height="8" fill="#05130b" stroke="#1c8f46" stroke-width="0.5"/>
<rect x="36" y="762" width="430" height="8" fill="#41ff7e" opacity="0.5" class="pulseBar"/>
<text x="640" y="694" font-size="11" fill="#41ff7e" text-anchor="end" class="blinkF">█</text>

<g class="drift"><rect x="18" y="14" width="644" height="792" fill="url(#scan)" pointer-events="none"/></g>
<rect x="18" y="18" width="644" height="784" rx="9" fill="url(#vig)" pointer-events="none"/>
</svg>